<svg xmlns="http://www.w3.org/2000/svg" height="1024" preserveAspectRatio="none" style="display: block;" version="1.1" viewBox="0 0 2048 2048" width="1024">
<path d="M 0 0 L 2048 0 L 2048 2048 L 0 2048 L 0 0 z" fill="rgb(255,255,255)" transform="translate(0,0)"></path>
<path d="M 763.873 69.0993 C 771.178 68.7223 776.015 70.3363 782.333 73.884 C 812.874 91.032 843.294 109.674 873.349 127.595 L 1022.8 216.377 C 1077.46 248.599 1131.9 281.175 1186.13 314.103 C 1212.22 329.667 1238.68 344.809 1264.64 360.571 C 1269.38 363.446 1281.37 372.046 1284.42 376.444 C 1288.23 381.944 1292.78 394.884 1292.08 401.689 C 1290.45 417.509 1286.93 433.706 1283.81 449.292 C 1277.37 480.812 1270.62 512.271 1263.58 543.663 L 1220.57 748.434 C 1211.74 790.539 1198.09 849.32 1192.39 891.546 C 1202.1 886.188 1212.53 879.334 1222.45 873.667 L 1355.55 797.091 C 1370.74 788.411 1400.24 769.626 1414.81 763.464 L 1940.93 1069.58 C 1939 1223.54 1941.65 1378.1 1940.42 1532.11 C 1940.09 1573.84 1939.94 1616.47 1940.89 1658.13 C 1932.08 1664.6 1913.53 1674.82 1903.39 1680.85 L 1817.94 1731.21 L 1531.51 1899.82 C 1492.84 1922.48 1453.31 1943.95 1415.26 1967.76 C 1401.32 1960.13 1386.05 1950.56 1372.17 1942.46 C 1337.84 1922.48 1303.64 1902.29 1269.55 1881.9 L 990.427 1717.95 L 919.734 1677.14 C 910.774 1671.9 894.289 1662.93 887.083 1656.77 L 887.052 1444.7 L 726.776 1544.3 C 707.763 1556.29 688.683 1568.17 669.539 1579.96 C 658.8 1586.58 648.206 1593.27 637.19 1599.15 C 625.77 1605.24 614.134 1601.49 603.673 1595.13 C 577.23 1579.05 550.848 1562.32 524.409 1546.22 L 335.947 1431.92 L 177.063 1336.27 C 164.831 1328.89 121.02 1304.09 113.33 1296.47 C 112.096 1252.07 113.134 1202.6 113.152 1157.92 L 113.353 887.311 L 113.147 612.478 C 113.11 566.054 112.97 519.7 113.219 473.209 C 111.438 457.689 126.311 446.733 140.706 454.025 C 158.63 463.106 177.803 475.803 195.68 485.787 C 214.638 479.663 233.76 474.057 253.023 468.977 C 251.47 445.093 250.795 406.229 251.129 382.181 C 273.313 406.926 299.194 417.454 327.538 435.365 C 333.445 429.744 347.844 420.376 355.254 414.836 C 354.85 378.884 352.09 358.024 349.466 323.447 C 361.576 329.148 399.81 351.367 410.479 359.287 C 419.889 351.723 440.209 339.665 451.19 332.829 C 451.131 303.364 451.933 275.622 447.782 246.352 C 475.697 261.164 509.33 279.69 536.517 295.533 C 558.014 254.726 577.214 212.607 599.366 172.155 C 605.106 161.674 623.676 152.612 634.246 146.016 C 653.943 133.603 673.797 121.44 693.803 109.532 C 709.622 100.019 749.048 72.6573 763.873 69.0993 z" fill="rgb(55,52,53)" transform="translate(0,0)"></path>
<path d="M 1413.77 797.88 C 1430.82 806.594 1451.37 819.852 1468.34 829.66 C 1511.69 854.279 1554.7 879.515 1597.34 905.359 L 1908.46 1087.56 C 1910.09 1146.4 1908.48 1211.33 1908.45 1270.89 L 1909.04 1640.73 C 1886.34 1654.77 1862.64 1667.94 1839.54 1681.44 L 1716.61 1753.68 L 1414.82 1930.79 C 1401.96 1924.5 1377.29 1909.04 1364.85 1901.6 L 1271.7 1846.25 L 918.731 1640.08 C 917.647 1620.15 918.453 1593.82 918.534 1573.61 L 918.939 1452.89 L 918.933 1087.84 C 930.06 1080.13 948.564 1069.88 960.92 1062.5 C 997.185 1041.04 1033.59 1019.81 1070.13 998.823 L 1413.77 797.88 z" fill="rgb(255,255,255)" transform="translate(0,0)"></path>
<path d="M 1414.06 852.812 C 1416.18 853.565 1429.95 861.463 1432.7 863.025 C 1452.67 874.366 1472.14 887.042 1492.11 898.375 C 1569.23 942.916 1645.89 988.25 1722.08 1034.37 C 1766.36 1060.9 1820.89 1091.39 1862.99 1119.66 L 1862.98 1611.81 C 1827.41 1635.04 1780.38 1659.23 1743.2 1681.31 L 1414.58 1874.71 C 1408.32 1873.01 1360.19 1842.64 1350.59 1836.94 L 1174.08 1732.78 L 1033.1 1650.87 C 1021.87 1644.37 975.478 1618.31 967.09 1611.21 C 966.195 1594.08 966.821 1572.05 966.858 1554.53 L 966.689 1461.13 L 966.226 1116.88 C 1000.9 1097.97 1035.28 1076.11 1069.53 1056.32 L 1414.06 852.812 z" fill="rgb(55,52,53)" transform="translate(0,0)"></path>
<path d="M 1413.44 874.903 C 1419.2 875.133 1801.9 1102.2 1842.87 1128.52 L 1842.81 1599.95 C 1809.66 1620.95 1767.91 1644.31 1733.77 1664.3 C 1687.73 1691.86 1641.37 1718.85 1594.68 1745.29 C 1593.63 1732.99 1591.76 1719.54 1589.18 1707.42 C 1576.15 1646.26 1564.29 1583.12 1546.75 1523.13 C 1552.16 1528.92 1578.41 1557.08 1586.42 1545.23 C 1587.6 1536.28 1580.44 1514.9 1577.62 1504.56 C 1650.23 1484.75 1723.18 1465.09 1789.23 1427.41 C 1776.7 1417.85 1758.55 1405.51 1744.83 1398.24 C 1730.56 1405.23 1716.66 1413.25 1702.17 1419.56 C 1660.19 1437.85 1615.38 1452.59 1571.52 1465.51 C 1560.67 1407.51 1547.51 1347.38 1527.49 1291.75 C 1519 1267.94 1507.68 1246.2 1497.61 1222.99 C 1485.15 1194.29 1462.59 1167.85 1451.79 1138.94 C 1446.54 1124.88 1457.86 1097.27 1473.16 1093.91 C 1479.03 1092.63 1483.16 1096.89 1487.96 1100.14 L 1489.42 1099.64 C 1492.67 1095.36 1492.89 1091.98 1492.86 1086.43 C 1493.28 1057.91 1481.64 1034.83 1461.45 1014.82 C 1425.39 979.075 1358.4 984.639 1324.1 1020.09 C 1301.86 1039.65 1300.39 1074.34 1288.03 1097.4 C 1261.54 1146.84 1235.94 1183.82 1237.21 1243.55 C 1238.46 1302.33 1264.54 1348.36 1306.64 1388.93 C 1321.96 1402.43 1333.19 1410.21 1349.93 1421.84 C 1337.8 1428.95 1311.11 1449.94 1321.08 1465.71 C 1315.98 1470.3 1287.56 1476.36 1278.9 1479.37 C 1248.6 1489.9 1230.98 1493.96 1199.22 1492.32 C 1140.21 1489.28 1089.06 1468.05 1035.28 1447.18 C 1079 1474.26 1120.17 1496.78 1171.07 1507.7 C 1182.92 1510.24 1195.85 1509.81 1207.13 1512.66 C 1172.76 1552.61 1144.34 1587.39 1102.57 1620.12 C 1136.37 1604.31 1165.65 1582.22 1192.27 1556.26 C 1199.05 1549.65 1219.98 1525.53 1227.21 1522.04 C 1236.42 1517.6 1265.83 1510.4 1277.38 1507.24 C 1310.98 1497.8 1344.66 1488.64 1378.42 1479.76 C 1384.66 1496.19 1388.34 1490.76 1400.86 1494.6 C 1411.38 1497.83 1414.08 1506.77 1427.28 1491.42 C 1430.3 1487.91 1434.54 1483.1 1438.38 1479.68 L 1439.41 1478.77 C 1444.82 1496 1449.29 1513.42 1454.95 1530.71 C 1470.73 1577.89 1487.57 1624.71 1505.45 1671.13 C 1519.35 1708.2 1529.49 1738.15 1547.37 1773.66 C 1503.13 1797.75 1458.93 1827.76 1413.13 1851.98 L 985.005 1600.28 L 985.365 1127.53 C 1053.43 1089.47 1123.39 1046.59 1190.93 1006.97 C 1245.44 975.217 1299.73 943.09 1353.8 910.593 C 1373.63 898.675 1393.89 887.228 1413.44 874.903 z" fill="rgb(255,255,255)" transform="translate(0,0)"></path>
<path d="M 1547.08 1502.97 C 1495.42 1460.09 1436.25 1406.87 1405.16 1346.66 C 1379.99 1297.9 1361.22 1230.46 1378.71 1176.69 C 1388.99 1145.08 1410.1 1137.74 1436.93 1124.41 C 1436.29 1156.62 1452.23 1170.69 1467.03 1196.99 C 1482.66 1225.28 1496.45 1254.55 1508.32 1284.61 C 1465.14 1324.85 1417.49 1275.97 1388.79 1243.92 C 1408.21 1285.43 1471.63 1343.46 1511.63 1292.81 C 1526.9 1329.66 1536.29 1370.41 1545.27 1409.38 C 1528.53 1382.64 1508.19 1356.92 1489.15 1331.61 C 1499.15 1356.28 1511.21 1377.38 1525.09 1400.05 C 1530.58 1409.01 1546.18 1429.71 1549.31 1438.07 C 1553.68 1449.74 1558.37 1476.37 1559.77 1488.97 C 1548.29 1473.58 1533.17 1462.47 1520.89 1448.01 C 1480.17 1400.13 1442.79 1349.81 1403.71 1300.75 C 1434.17 1366.33 1467.11 1403.81 1519.6 1452.16 C 1526.74 1458.73 1547.63 1489.71 1554.31 1499.01 L 1547.08 1502.97 z" fill="rgb(176,221,243)" transform="translate(0,0)"></path>
<path d="M 1444.83 1320.52 C 1448.89 1322.73 1462.76 1340.15 1466.53 1344.73 C 1487.63 1370.38 1531.22 1416.55 1544.91 1446.44 C 1543.48 1446.57 1542.92 1446.36 1541.46 1446.15 C 1516.67 1428.46 1455.35 1350.62 1444.83 1320.52 z" fill="rgb(55,52,53)" transform="translate(0,0)"></path>
<path d="M 1288.84 1125.62 C 1291.03 1127.05 1296.92 1135.96 1299.57 1138.49 C 1321.77 1159.64 1347.83 1162.51 1376.31 1155.23 C 1372.45 1164.54 1368.65 1173.54 1365.34 1183.06 C 1363.46 1188.47 1362.78 1194.03 1360.92 1198.94 C 1355.19 1196.16 1355.5 1183.87 1344.26 1191.55 C 1337.71 1196.02 1331.49 1189.82 1323.99 1194.97 C 1321.32 1201.1 1326.7 1208.64 1332.38 1211.07 C 1342.28 1215.29 1350.87 1207.14 1359.48 1203.51 C 1360.19 1206.57 1358.23 1222.23 1358.19 1227.6 C 1357.93 1266.75 1368.91 1298.02 1382.82 1333.53 C 1378.9 1331.51 1373.09 1327.58 1369.45 1328.03 C 1361.22 1336.95 1375.78 1359.82 1385.28 1347.81 C 1384.31 1342.75 1376.36 1345.42 1373.08 1338.13 L 1373.83 1337.12 C 1376.34 1338.47 1377.91 1339.55 1380.75 1339.95 L 1383.11 1337.58 C 1385.28 1339.69 1400.54 1368.9 1404.12 1374.57 C 1409.59 1383.25 1415.85 1392.5 1422.1 1401.31 L 1428.18 1409.5 C 1424.21 1408.89 1415.19 1406.67 1412.54 1409.67 C 1417.93 1413.95 1428.62 1416.42 1434.15 1419.45 C 1440.57 1422.98 1451.38 1434.64 1457.05 1440.34 C 1419.02 1437.77 1398.25 1432.61 1365.16 1413.04 C 1250.24 1345.06 1220.3 1240.2 1288.84 1125.62 z" fill="rgb(255,255,255)" transform="translate(0,0)"></path>
<path d="M 1292.85 1297.31 C 1298.79 1297.7 1300.14 1297.85 1304.78 1301.59 C 1309.64 1305.52 1320.55 1314.54 1327.01 1311.47 C 1323.06 1309.36 1315.54 1306 1313.53 1302.36 L 1314.25 1300.46 C 1320.84 1296.71 1330.37 1301.69 1334.01 1307.57 C 1332.95 1313.1 1332.41 1315.6 1328 1319.02 C 1318.55 1320.84 1318.14 1314.07 1308.99 1311.97 C 1307.05 1315.6 1306.39 1316.6 1303.89 1319.86 C 1302.3 1320.54 1300.71 1321.43 1299.12 1320.54 C 1286.64 1313.53 1274.56 1305.1 1292.85 1297.31 z" fill="rgb(55,52,53)" transform="translate(0,0)"></path>
<path d="M 1288.79 1300.5 C 1295.67 1302.14 1302.64 1306.44 1301.09 1314.21 C 1294.88 1311.51 1289.5 1307.48 1288.79 1300.5 z" fill="rgb(255,255,255)" transform="translate(0,0)"></path>
<path d="M 1278.02 1171.77 C 1283.63 1171.56 1283.61 1172.68 1287.37 1176.17 C 1288.32 1175.16 1289.02 1174.11 1289.76 1172.93 C 1323.07 1175.16 1315.29 1210.17 1293.57 1192.6 C 1293.07 1191.58 1292.55 1190.57 1292 1189.57 C 1289.57 1185.1 1286.51 1179.47 1281.38 1178 L 1279.97 1179.05 C 1279.47 1187.34 1285.2 1184.28 1289.64 1191.17 C 1285.06 1202.12 1267.43 1186.37 1278.02 1171.77 z" fill="rgb(55,52,53)" transform="translate(0,0)"></path>
<path d="M 1293.53 1180.51 C 1298.79 1181.92 1305.39 1184.85 1307.97 1189.86 C 1298.57 1191.21 1297.7 1187.86 1293.53 1180.51 z" fill="rgb(255,255,255)" transform="translate(0,0)"></path>
<path d="M 1331.69 1273.07 C 1335.8 1274.36 1337.52 1275.96 1342.37 1276.65 C 1355.07 1278.46 1363.79 1282.7 1356.1 1296.13 C 1352.36 1297.38 1350.39 1298.14 1346.54 1297.06 C 1340.67 1295.45 1335.7 1291.52 1332.78 1286.17 C 1329.95 1280.99 1330.12 1278.49 1331.69 1273.07 z" fill="rgb(55,52,53)" transform="translate(0,0)"></path>
<path d="M 1338.18 1280.96 C 1343.3 1281.42 1352.08 1284.89 1353.84 1289.88 C 1346.69 1293.14 1340.99 1286.89 1338.18 1280.96 z" fill="rgb(255,255,255)" transform="translate(0,0)"></path>
<path d="M 1315.86 1336.79 C 1327.87 1336.84 1348.02 1348.69 1337.43 1362.99 C 1325.66 1364.28 1309.12 1348.9 1315.86 1336.79 z" fill="rgb(55,52,53)" transform="translate(0,0)"></path>
<path d="M 1320.67 1343.82 C 1327.23 1345.93 1333.02 1349.86 1335.73 1356.31 C 1328.91 1356.18 1323.44 1349.49 1320.67 1343.82 z" fill="rgb(255,255,255)" transform="translate(0,0)"></path>
<path d="M 1302.61 1247.57 C 1309.83 1247.86 1332.3 1262.45 1321.64 1274.19 C 1309.92 1276.4 1305.84 1271.65 1299.92 1262.03 C 1300.4 1256.24 1300.96 1253.18 1302.61 1247.57 z" fill="rgb(55,52,53)" transform="translate(0,0)"></path>
<path d="M 1305.63 1257.5 C 1311.74 1258.17 1315.82 1262.26 1318.14 1267.66 C 1311.7 1268.01 1307.71 1262.96 1305.63 1257.5 z" fill="rgb(255,255,255)" transform="translate(0,0)"></path>
<path d="M 1262.25 1252.36 C 1266.41 1253.19 1265.25 1252.1 1267.02 1254.63 C 1266.68 1266.66 1270.62 1274.85 1282.26 1279.12 C 1282.65 1275.5 1274.84 1270.12 1276.19 1265.04 C 1280.27 1263.1 1282.43 1265.07 1285.63 1267.39 C 1288.99 1273.8 1292.92 1279.63 1286.65 1285.19 C 1273.03 1288.61 1254.05 1268.12 1262.25 1252.36 z" fill="rgb(55,52,53)" transform="translate(0,0)"></path>
<path d="M 1299.86 1207.7 C 1313.86 1207.69 1324.99 1218.4 1314.36 1231.36 C 1302.19 1229.62 1289.92 1219.94 1299.86 1207.7 z" fill="rgb(55,52,53)" transform="translate(0,0)"></path>
<path d="M 1301.56 1212.82 C 1308.74 1214.65 1311.68 1215.52 1312.09 1223.58 C 1304.43 1222.62 1301.58 1220.86 1301.56 1212.82 z" fill="rgb(255,255,255)" transform="translate(0,0)"></path>
<path d="M 1328.2 1233.33 C 1340.48 1231.22 1358.35 1238.03 1344.78 1250.77 C 1334.18 1252.45 1321.84 1245.29 1325.6 1234.53 L 1328.2 1233.33 z" fill="rgb(55,52,53)" transform="translate(0,0)"></path>
<path d="M 1331.36 1237.9 C 1336.61 1238.27 1339.61 1237.81 1342.91 1241.52 L 1342.71 1244.77 C 1338.65 1245.1 1338.26 1245.25 1334.4 1244.22 C 1331.34 1241.21 1332.27 1242.59 1331.36 1237.9 z" fill="rgb(255,255,255)" transform="translate(0,0)"></path>
<path d="M 1348.21 1314.78 C 1362.9 1315.34 1366.32 1329.41 1350.47 1336.66 C 1346.26 1334.97 1339.35 1330.81 1337.43 1326.65 C 1337.95 1321.11 1344.12 1319.97 1348.21 1314.78 z" fill="rgb(55,52,53)" transform="translate(0,0)"></path>
<path d="M 1266.85 1202.53 C 1280.79 1203.71 1285.61 1217.16 1276.39 1227.9 C 1261.4 1226.71 1261.73 1213.3 1266.85 1202.53 z" fill="rgb(55,52,53)" transform="translate(0,0)"></path>
<path d="M 1385.67 1374.91 C 1398.69 1375.49 1403.94 1386.45 1391.81 1394.93 C 1378.27 1392.92 1370.59 1384 1385.67 1374.91 z" fill="rgb(55,52,53)" transform="translate(0,0)"></path>
<path d="M 1354.88 1360.94 C 1369.16 1359.69 1376.01 1372.82 1367.17 1381.95 C 1360.11 1385.16 1356.04 1380.8 1351.59 1375.76 C 1350.06 1372.56 1349.02 1369.66 1350.03 1366.23 C 1353.06 1365.66 1351.48 1365.64 1354.93 1367.67 C 1357.49 1373.1 1357.28 1374.93 1363.35 1375.75 L 1364.66 1374.46 C 1362.81 1362.3 1355.98 1372.62 1354.88 1360.94 z" fill="rgb(55,52,53)" transform="translate(0,0)"></path>
<path d="M 1274.62 1231.57 L 1275.97 1232.78 C 1277.51 1238.17 1278.64 1239.76 1282.5 1243.81 C 1286.04 1245.03 1284.55 1245.29 1287.27 1244.08 L 1287.42 1241.9 C 1285.14 1238.65 1282.24 1236.05 1284.47 1232.38 C 1288.65 1232.44 1290.66 1234.2 1293.22 1237.24 C 1296.77 1264.4 1261.65 1245.96 1274.62 1231.57 z" fill="rgb(55,52,53)" transform="translate(0,0)"></path>
<path d="M 1390.13 1005.36 C 1416.44 1002.75 1443.46 1012.4 1459.89 1033.61 C 1448.58 1036.43 1442.64 1040.75 1435.49 1050.92 C 1427.73 1061.68 1423.08 1088.72 1437.1 1096.34 C 1443.72 1099.93 1456.01 1090.65 1462.6 1087.33 C 1458.03 1091.94 1446.32 1105.44 1441.67 1108.24 C 1424.49 1118.58 1412.98 1119.7 1394.45 1131.04 C 1378.22 1142.44 1365.54 1147.4 1345.4 1145.52 C 1322.42 1143.37 1310.52 1132.78 1297.14 1115.42 C 1320.22 1059.62 1316.87 1015.38 1390.13 1005.36 z" fill="rgb(255,255,255)" transform="translate(0,0)"></path>
<path d="M 1389.21 1028.69 C 1398.66 1025.38 1409 1030.32 1412.38 1039.74 C 1415.75 1049.16 1410.89 1059.54 1401.49 1062.97 C 1392 1066.44 1381.5 1061.53 1378.1 1052.01 C 1374.69 1042.5 1379.68 1032.04 1389.21 1028.69 z" fill="rgb(55,52,53)" transform="translate(0,0)"></path>
<path d="M 1444.38 1455.05 C 1453.14 1455.11 1461.9 1455.09 1470.67 1454.97 C 1486.06 1470.27 1508.13 1490.68 1526.33 1501.98 C 1544.59 1579.35 1568.43 1661.9 1580.05 1740.64 C 1570.74 1716.58 1557.32 1689.89 1550 1666.01 C 1533.19 1611.17 1518.35 1549.24 1496.01 1496.41 C 1492.03 1486.57 1489 1479.47 1483.26 1470.53 C 1484.95 1484.12 1491.37 1507.58 1495.09 1520.98 L 1513.02 1585.27 C 1528.83 1642.69 1537.41 1680.97 1547.18 1739.35 C 1539.94 1723.85 1531.13 1697.69 1524.86 1681.05 C 1509.13 1639.69 1493.81 1598.17 1478.91 1556.5 C 1471.42 1535.99 1464.05 1515.43 1456.81 1494.82 C 1452.93 1483.81 1446.08 1466.04 1444.38 1455.05 z" fill="rgb(176,221,243)" transform="translate(0,0)"></path>
<path d="M 1467.37 1046.15 C 1475.38 1049.18 1479 1067.91 1480.58 1075.54 C 1473.02 1072.04 1470.16 1071.36 1462.25 1069.96 C 1455.16 1069.31 1450.6 1068.09 1443.95 1071.31 L 1443.31 1070.56 C 1446.71 1057.27 1453.59 1048.66 1467.37 1046.15 z" fill="rgb(255,255,255)" transform="translate(0,0)"></path>
<path d="M 1361.89 1433.09 C 1367.52 1432.88 1373.58 1436.12 1378.66 1438.45 C 1362.51 1439.53 1358.49 1444.63 1347.98 1456.63 L 1345.21 1460.22 C 1342.35 1461.69 1342.5 1461.5 1339.25 1461.2 C 1336.08 1458.93 1337.26 1460.36 1335.68 1456.68 C 1336.29 1444.33 1351.17 1436 1361.89 1433.09 z" fill="rgb(255,255,255)" transform="translate(0,0)"></path>
<path d="M 1423.62 1452.83 C 1428.04 1452.93 1428.67 1452.18 1431.69 1454.22 C 1431.34 1460.64 1418.9 1471.06 1412.95 1482.39 C 1411.93 1484.14 1412.66 1483.39 1410.6 1484.46 C 1401.66 1475.58 1417.74 1459.35 1423.62 1452.83 z" fill="rgb(255,255,255)" transform="translate(0,0)"></path>
<path d="M 1559.17 1727.78 C 1563.7 1731.37 1570.05 1748.12 1577.25 1754.99 L 1577.14 1756.43 L 1573.19 1759.22 L 1561.4 1766.25 C 1561.24 1752.21 1560.79 1741.64 1559.17 1727.78 z" fill="rgb(255,255,255)" transform="translate(0,0)"></path>
<path d="M 1400.55 1447.31 C 1404.43 1447.44 1404.38 1447.38 1408.02 1448.62 C 1400.1 1458.83 1396.5 1464.12 1393.47 1476.42 L 1392.96 1476.55 C 1390.58 1475.77 1390.75 1475.75 1388.95 1473.96 C 1384.68 1462.55 1389.91 1452.42 1400.55 1447.31 z" fill="rgb(255,255,255)" transform="translate(0,0)"></path>
<path d="M 1547.08 1502.97 L 1554.31 1499.01 C 1560.96 1508.52 1563.03 1513.63 1567.65 1524.26 C 1560.89 1516.56 1554.77 1509.83 1547.08 1502.97 z" fill="rgb(255,255,255)" transform="translate(0,0)"></path>
<path d="M 1328.84 1197.65 C 1333.5 1197.71 1334.1 1197.64 1338.05 1199.93 C 1340.31 1203.38 1339.83 1201.56 1339.7 1205.55 C 1335.85 1205.62 1335.63 1205.85 1331.94 1204.42 C 1329.39 1201.93 1329.51 1201.11 1328.84 1197.65 z" fill="rgb(255,255,255)" transform="translate(0,0)"></path>
<path d="M 130.492 473.8 C 139.328 478.292 155.686 488.891 165.049 494.457 C 194.688 512.116 224.151 530.067 253.435 548.308 L 465.572 679.297 L 557.975 735.62 C 567.48 741.496 591.321 755.608 598.27 762.181 C 598.555 782.715 597.944 803.812 598.077 824.538 L 598.137 1216.76 L 598.973 1396.58 L 599.042 1472.12 C 599.039 1483.23 599.662 1506.1 598.159 1516.34 C 596.628 1526.77 591.695 1545.53 589.164 1556.5 C 588.529 1560.97 589.276 1561.26 586.788 1563.89 C 580.099 1564.09 570.903 1555.17 564.946 1551.5 L 506.179 1515.16 L 130.286 1288.18 L 130.632 670.595 L 130.424 533.804 C 130.401 514.505 129.738 492.919 130.492 473.8 z" fill="rgb(255,255,255)" transform="translate(0,0)"></path>
<path d="M 384.304 712.509 C 386.377 712.444 388.782 712.377 390.662 713.543 C 415.413 728.893 440.514 744.048 465.284 759.338 C 488.963 773.954 514.682 788.101 537.299 804.043 C 536.784 843.256 537.38 882.748 537.036 921.934 C 536.947 932.085 537.722 965.72 536.354 974.173 C 536.147 974.105 535.94 974.035 535.732 973.969 C 529.987 972.151 391.53 888.452 383.083 881.053 C 381.712 860.864 383.311 827.647 382.897 807.181 C 382.638 794.368 381.407 718.504 384.304 712.509 z" fill="rgb(55,52,53)" transform="translate(0,0)"></path>
<path d="M 391.889 724.445 C 421.518 744.943 454.612 763.606 485.28 782.677 C 499.646 791.611 515.096 799.981 528.892 809.7 C 527.577 858.154 528.284 910.493 528.029 959.233 C 525.924 959.684 492.822 938.02 487.678 934.848 L 392.378 876.522 C 391.458 857.419 391.927 833.859 391.862 814.525 C 391.609 784.499 391.617 754.471 391.889 724.445 z" fill="rgb(228,73,71)" transform="translate(0,0)"></path>
<path d="M 405.249 751.285 C 412.058 753.369 438.722 770.046 446.742 775.037 C 468.529 788.595 492.532 801.994 513.77 816.1 L 513.792 892.519 C 513.79 901.867 514.491 928.886 512.421 936.56 C 506.56 934.346 483.391 919.584 476.909 915.62 L 404.185 871.245 C 403.699 841.663 404.566 811.788 404.414 782.182 C 404.362 772.043 404.568 761.398 405.249 751.285 z" fill="rgb(55,52,53)" transform="translate(0,0)"></path>
<path d="M 413.308 765.441 C 418.316 767.677 436.235 779.281 442.216 782.94 C 462.942 795.457 483.537 808.188 503.998 821.133 C 504.261 854.402 504.3 887.674 504.115 920.944 C 477.609 906.657 439.168 881.51 413.498 865.096 C 413.92 831.878 413.856 798.656 413.308 765.441 z" fill="rgb(255,255,255)" transform="translate(0,0)"></path>
<path d="M 190.15 1137.58 C 200.075 1141.96 223.705 1157.49 234.083 1163.76 L 308.125 1207.79 L 541.049 1347.34 C 541.095 1352.04 541.735 1367.24 540.205 1370.7 L 538.454 1370.21 C 513.191 1353.54 483.241 1337.29 457.077 1321.61 L 275.764 1213.37 C 250.141 1198.09 224.11 1183.44 199.056 1167.25 C 181.426 1155.85 184.072 1155.33 190.15 1137.58 z" fill="rgb(55,52,53)" transform="translate(0,0)"></path>
<path d="M 191.422 1196.33 C 196.763 1198.71 213.906 1209.57 219.855 1213.14 L 281.65 1250.08 C 369.354 1301.71 454.33 1354.6 541.125 1406.96 C 541.179 1411.8 541.935 1426.69 540.35 1430.32 L 538.496 1429.93 C 498.42 1404.66 457.938 1380.05 417.068 1356.09 L 291.822 1280.57 C 257.966 1260.32 223.249 1241.49 190.153 1219.95 C 180.021 1213.35 186.991 1203.66 191.422 1196.33 z" fill="rgb(55,52,53)" transform="translate(0,0)"></path>
<path d="M 190.624 850.435 C 196.328 852.386 214.223 863.346 220.061 866.883 L 281.136 904.417 C 367.941 956.183 454.436 1008.47 540.618 1061.26 C 540.813 1069.05 541.075 1076.24 540.622 1084.02 L 539.369 1084.84 C 463.108 1037.48 382.34 989.482 305.067 943.315 L 228.897 897.438 C 216.39 889.891 203.683 882.631 191.36 874.808 C 181.533 868.57 185.894 858.292 190.624 850.435 z" fill="rgb(55,52,53)" transform="translate(0,0)"></path>
<path d="M 192.615 1022.67 C 201.037 1028.61 215.904 1036.93 225.33 1042.61 L 290.052 1081.56 L 432.285 1167.98 C 468.851 1190.1 505.371 1211.3 541.188 1234.67 C 541.281 1239.26 542.177 1255.24 540.555 1258.32 L 539.445 1258.01 C 480.905 1222.7 421.918 1185.19 363.112 1150.23 C 325.772 1128.32 288.656 1106.02 251.77 1083.35 C 232.356 1071.67 212.645 1060.05 193.398 1048.1 C 190.532 1046.32 186.722 1043.96 186.385 1040.65 C 185.635 1033.29 188.425 1028.07 192.615 1022.67 z" fill="rgb(55,52,53)" transform="translate(0,0)"></path>
<path d="M 191.656 908.25 C 196.883 910.415 216.366 922.954 222.625 926.752 L 286.939 965.432 L 449.321 1062.97 L 506.226 1097.42 C 516.976 1103.99 530.604 1111.82 540.4 1119.21 C 540.577 1124.97 541.265 1136.43 540.353 1141.58 L 538.563 1141.81 C 510.83 1123.79 477.841 1104.9 449.229 1087.66 L 284.707 988.722 C 253.744 970.152 222.683 951.726 192.047 932.629 C 181.367 925.972 186.386 917.5 191.656 908.25 z" fill="rgb(55,52,53)" transform="translate(0,0)"></path>
<path d="M 191.669 1080.75 C 204.687 1087.03 223.904 1099.71 236.99 1107.57 L 320.068 1157.25 C 336.059 1166.94 378.592 1190.33 390.995 1201.04 C 391.139 1205.73 392.018 1219.65 389.759 1223.33 L 388.226 1223.11 C 346.94 1195.65 300.166 1172.01 258.202 1145.01 C 237.143 1131.46 213.663 1120.28 193.054 1105.75 C 180.384 1096.83 185.476 1091.7 191.669 1080.75 z" fill="rgb(55,52,53)" transform="translate(0,0)"></path>
<path d="M 191.288 1254.82 C 198.547 1257.71 213.446 1267.26 220.509 1271.57 L 265.514 1298.89 C 305.136 1322.79 350.626 1347.93 388.994 1372.59 C 389.066 1377.31 390.042 1392.9 387.493 1395.75 L 385.488 1394.95 C 345.304 1371.34 305.257 1347.5 265.35 1323.43 C 241.168 1309.06 216.592 1294.91 192.651 1280.17 C 190.638 1278.93 185.855 1275.73 185.113 1273.72 C 182.942 1267.83 188.481 1259.69 191.288 1254.82 z" fill="rgb(55,52,53)" transform="translate(0,0)"></path>
<path d="M 191.141 964.54 C 227.816 986.02 264.163 1009.41 301.25 1031.11 C 327.045 1046.2 365.057 1067.79 388.652 1083.81 C 388.598 1089.8 389.002 1101.09 387.891 1106.36 L 386.53 1106.96 C 378.866 1103.02 368.367 1096.13 360.632 1091.48 L 311.029 1061.86 L 239.82 1018.77 C 225.172 1009.99 210.454 1001.4 195.904 992.445 C 181.582 983.625 184.923 978.133 191.141 964.54 z" fill="rgb(55,52,53)" transform="translate(0,0)"></path>
<path d="M 186.741 653.304 C 197.416 658.312 214.728 669.784 225.817 676.377 C 260.233 696.844 294.102 718.436 328.392 739.228 L 328.035 759.024 C 317.114 753.892 279.38 729.943 267.849 722.72 C 243.285 707.333 209.97 689.28 187.01 673.04 L 186.741 653.304 z" fill="rgb(55,52,53)" transform="translate(0,0)"></path>
<path d="M 185.984 703.2 C 196.872 707.388 233.542 730.392 244.692 737.453 C 270.707 753.927 302.624 771.461 327.35 789.102 L 328.174 807.993 C 323.393 806.433 289.227 784.807 282.602 780.721 C 250.661 760.785 218.464 741.262 186.02 722.156 L 185.984 703.2 z" fill="rgb(55,52,53)" transform="translate(0,0)"></path>
<path d="M 187.431 604.365 C 197.392 609.28 215.021 620.793 224.991 626.9 C 242.297 637.5 261.548 648.762 278.261 660.008 L 277.919 679.559 C 267.069 673.903 251.798 663.67 240.821 657.014 C 223.368 646.431 203.901 635.291 187.044 624.057 C 186.932 617.394 187.192 611.018 187.431 604.365 z" fill="rgb(55,52,53)" transform="translate(0,0)"></path>
<path d="M 1272.1 417.083 C 1272.51 422.617 1265.53 453.315 1264.02 460.482 C 1256.31 497.343 1248.36 534.15 1240.14 570.901 L 1171.08 902.52 C 1129.82 928.432 1089.56 951.391 1047.69 976 L 887.007 1069.89 L 886.879 1351.98 C 829.223 1390.39 769.889 1426.8 711.113 1463.5 C 706.658 1466.28 702.693 1470.36 704.02 1475.8 C 711.134 1479.9 719.311 1472.14 725.6 1468.54 C 736.116 1462.52 746.355 1455.67 756.604 1449.17 L 859.279 1383.8 C 864.122 1380.72 881.818 1368.31 885.453 1367.73 L 886.73 1369 C 886.798 1369.98 887.079 1371.86 886.847 1372.89 C 885.541 1378.67 838.235 1406.31 830.489 1411.29 C 770.105 1450.22 708.48 1491.28 646.951 1528.37 C 714.659 1245.63 784.172 963.325 855.489 681.476 C 864.161 673.924 889.434 659.456 900.398 652.587 L 982.733 600.629 C 1008.98 584.237 1035.11 567.047 1061.23 550.365 C 1130.75 505.958 1203.48 462.545 1272.1 417.083 z" fill="rgb(255,255,255)" transform="translate(0,0)"></path>
<path d="M 764.32 138.726 C 772.394 139.199 1086.52 328.502 1119.84 348.397 L 1199.31 395.627 C 1210.75 402.483 1222.27 408.689 1233.48 415.954 C 1221.81 423.832 1207.19 432.29 1195 440.139 C 1158.34 463.967 1121.51 487.54 1084.52 510.858 L 1041.97 537.51 C 1042.15 511.278 1042.15 485.044 1041.98 458.812 C 1033.42 451.977 1008.89 438.12 998.295 431.771 L 911.334 379.707 L 641.008 216.569 C 651.436 208.942 671.027 197.483 682.61 190.199 L 764.32 138.726 z" fill="rgb(255,255,255)" transform="translate(0,0)"></path>
<path d="M 369.071 394.255 C 379.591 399.723 403.205 415.605 414.816 422.713 L 530.664 494.486 C 604.423 540.588 680.382 584.676 753.363 631.489 C 751.769 713.842 754.38 797.273 752.351 879.664 C 752.19 886.193 747.063 904.168 745.382 911.042 L 731.694 966.614 L 683.549 1165.3 C 684.719 1132.56 684.749 1098.53 684.901 1065.75 C 685.151 1025.41 686.532 714.632 682.629 705.084 C 679.83 698.24 673.132 693.952 667.266 689.942 C 636.906 669.189 604.213 650.875 572.732 631.798 L 427.625 543.517 L 314.055 473.894 C 297.739 463.991 280.431 452.585 263.742 443.698 C 265.608 432.573 264.335 424.053 263.382 412.99 C 285.092 421.491 350.247 468.83 360.873 469.877 C 363.346 470.12 365.303 469.044 367.062 467.335 C 374.163 460.44 369.493 406.587 369.071 394.255 z" fill="rgb(255,255,255)" transform="translate(0,0)"></path>
<path d="M 459.966 265.402 C 475.306 272.778 499.431 287.974 515.746 296.871 C 579.475 331.785 642.582 367.82 705.04 404.958 L 831.666 480.804 C 855.465 495.148 887.238 513.234 909.231 528.988 L 908.858 622.691 L 887.701 636.021 C 876.46 642.973 865.286 650.032 854.181 657.198 C 853.833 622.92 853.958 588.64 854.555 554.366 C 841.345 545.489 821.395 534.641 807.315 526.286 L 713.634 470.777 L 461.935 320.857 C 461.773 302.967 461.998 283.087 459.966 265.402 z" fill="rgb(228,73,71)" transform="translate(0,0)"></path>
<path d="M 606.182 207.427 C 626.802 221.48 649.242 234.465 670.713 247.276 L 745.761 292.311 L 941.551 410.975 C 968.488 427.294 1006.65 448.133 1031.4 465.1 L 1031.96 543.75 C 1021.23 551.025 1009.59 558.27 998.64 565.32 L 976.934 578.459 C 976.222 550.049 976.88 518.88 976.953 490.248 C 962.058 479.892 942.79 468.968 926.883 459.4 C 897.466 441.495 867.842 423.931 838.018 406.712 L 672.961 308.691 C 646.708 293.122 607.23 271.13 582.872 254.092 C 586.394 243.636 600.358 218.431 606.182 207.427 z" fill="rgb(228,73,71)" transform="translate(0,0)"></path>
<path d="M 463.921 334.5 C 500.547 355.191 538.737 380.249 575.265 402.015 L 843.587 560.665 C 842.786 594.99 842.586 629.327 842.987 663.659 C 835.359 668.765 829.964 673.073 822.803 678.891 C 814.813 686.166 810.067 690.987 802.909 699.091 C 805.383 668.337 805.079 632.705 803.932 601.902 C 803.722 596.262 760.134 571.384 752.905 566.909 L 624.036 488.836 L 517.033 423.138 C 500.066 412.831 481.67 401.172 464.375 391.741 C 463.737 373.304 464.029 353.076 463.921 334.5 z" fill="rgb(255,255,255)" transform="translate(0,0)"></path>
<path d="M 578.872 264.879 C 624.7 293.509 672.076 320.458 718.639 347.908 C 748.871 365.73 778.578 384.54 808.903 402.192 L 893.423 452.152 C 917.592 466.468 942.47 480.806 965.792 496.398 C 966.052 526.303 965.294 556.203 965.689 586.031 C 955.779 592.581 945.738 598.932 935.573 605.079 L 919.195 614.933 C 918.855 584.466 919.975 552.229 920.639 521.691 C 803.974 448.6 678.421 376.317 559.304 307.074 C 565.773 292.952 572.476 279.113 578.872 264.879 z" fill="rgb(255,255,255)" transform="translate(0,0)"></path>
<path d="M 265.046 460.416 C 268.254 461.92 279.755 469.754 283.265 472.06 C 292.961 478.513 302.822 484.715 312.838 490.659 C 364.937 521.748 416.817 553.201 468.476 585.017 C 518.432 615.108 568.159 645.578 617.652 676.426 C 627.982 682.832 663.814 703.653 670.645 709.981 C 670.422 718.391 669.299 726.792 669.238 735.769 C 668.996 771.782 669.083 807.848 669.161 843.855 L 669.556 1018.86 C 670.075 1068.74 670.012 1118.61 669.366 1168.49 C 669.008 1188.71 670.582 1211.33 666.88 1230.94 C 663.88 1246.83 660.463 1263.33 656.722 1279.05 C 655.314 1285.81 654.423 1290.98 651.899 1297.43 C 652.769 1181.33 652.708 1065.22 651.718 949.12 L 651.186 810.203 C 651.116 785.655 651.905 754.487 650.528 730.348 C 640.143 717.219 597.871 693.925 580.996 683.638 L 480.276 622.127 L 343.773 538.964 C 317.824 523.072 291.46 506.141 265.25 490.925 C 265.1 480.756 265.032 470.586 265.046 460.416 z" fill="rgb(255,255,255)" transform="translate(0,0)"></path>
<path d="M 232.953 489.281 C 259.639 506.928 294.989 527.424 322.609 544.457 L 525.083 668.822 L 600.33 715.096 C 609.797 720.99 627.746 731.5 635.938 738.104 L 637.024 1152.12 L 637.024 1277.24 C 637.026 1315.17 639.579 1350.5 628.601 1387.05 C 626.356 1394.53 623.767 1415.41 620.711 1421.14 L 619.986 1420.09 L 619.265 934.613 L 619.462 807.74 C 619.489 790.153 619.938 770.371 618.782 752.966 C 618.126 743.107 587.544 727.032 578.792 721.711 C 560.475 710.649 542.214 699.496 524.008 688.25 L 305.509 553.945 C 275.136 535.165 239.314 514.912 210.487 494.811 C 217.191 493.567 226.179 491.004 232.953 489.281 z" fill="rgb(255,255,255)" transform="translate(0,0)"></path>
<path d="M 365.549 346.348 C 388.214 359.669 409.939 374.067 432.288 387.863 L 575.283 475.824 L 740.385 576.454 C 756.845 586.442 773.76 595.884 790.017 605.981 L 789.695 691.378 C 789.606 703.511 789.879 731.055 788.007 742.23 C 784.589 762.623 777.037 788.862 771.787 809.254 C 770.121 816.909 768.375 824.546 766.548 832.164 C 765.568 814.181 766.489 791.262 766.641 772.738 L 766.964 678.513 C 766.993 664.139 767.618 641.184 766.148 627.495 C 765.381 620.35 722.064 595.426 714.192 590.563 L 622.578 534.786 L 366.979 377.097 C 367.203 365.353 366.907 357.971 365.549 346.348 z" fill="rgb(255,255,255)" transform="translate(0,0)"></path>
<path d="M 766.912 90.782 C 773.318 92.5659 800.404 109.773 808.366 114.526 L 868.581 150.201 C 905.402 172.238 1260.32 381.82 1263.3 386.533 C 1264.8 388.895 1264.06 394.696 1263 397.146 C 1261.82 399.872 1260.93 400.189 1258.43 401.469 C 1251.22 401.721 1245.57 396.17 1239.5 392.736 L 1210.71 376.351 C 1176.6 356.434 1142.64 336.291 1108.8 315.921 C 1033.12 270.099 957.126 224.792 880.827 180.005 C 848.367 161.076 816.527 140.922 783.543 122.946 C 778.127 119.995 770.944 116.945 764.887 115.74 C 761.951 115.157 755.299 118.335 752.552 119.969 C 730.14 133.4 707.117 146.969 685.264 161.269 C 664.83 174.64 640.434 187.54 621.169 202.246 C 618.568 201.394 614.464 200.845 611.625 200.373 C 614.153 195.262 616.682 187.926 618.738 182.437 C 654.051 157.97 693.494 136.802 729.518 113.157 C 741.077 105.571 754.785 97.1255 766.912 90.782 z" fill="rgb(255,255,255)" transform="translate(0,0)"></path>
<path d="M 830.749 701.829 C 832.931 703.835 830.26 710.249 829.378 713.604 C 783.672 893.364 738.994 1073.38 695.346 1253.65 C 678.918 1320.25 662.852 1386.93 647.148 1453.7 C 642.899 1471.76 638.538 1489.8 634.066 1507.8 C 631.477 1518.17 628.916 1528.5 626.41 1538.98 C 623.091 1552.85 628.659 1566.27 644.549 1557.9 C 660.979 1549.04 676.274 1538.11 692.46 1528.76 C 758.115 1490.86 820.918 1443.46 886.321 1405.67 C 886.491 1410.69 886.467 1416.12 886.53 1421.17 L 875.968 1427.39 C 829.002 1459.02 778.443 1487.46 730.69 1518.11 C 699.865 1537.9 668.494 1557.09 637.512 1576.63 C 630.281 1581.19 620.07 1586.46 612.456 1579.9 C 610.33 1576.16 610.443 1572.5 611.434 1568.34 C 615.704 1550.39 620.329 1532.21 624.576 1514.27 L 654.178 1388.23 C 692.354 1225.78 731.957 1063.67 772.981 901.919 L 804.437 777.703 C 808.741 760.723 818.001 727.551 820.452 711.049 L 820.633 709.74 C 823.994 707.265 827.452 704.429 830.749 701.829 z" fill="rgb(255,255,255)" transform="translate(0,0)"></path>
<path d="M 450.621 349.896 C 452.683 351.8 451.958 363.876 451.95 367.27 C 447.003 370.284 442.072 373.325 437.158 376.393 L 431.585 372.706 L 423.08 367.313 C 430.453 361.734 442.464 354.875 450.621 349.896 z" fill="rgb(255,255,255)" transform="translate(0,0)"></path>
<path d="M 355.689 433.925 C 358.892 437.424 357.816 450.664 357.752 456.224 C 355.366 453.781 353.611 452.355 350.958 450.181 L 340.526 443.216 C 346.068 439.327 349.754 437.209 355.689 433.925 z" fill="rgb(255,255,255)" transform="translate(0,0)"></path>
</svg>
